<svg width="11" height="11" fill="none" xmlns="http://www.w3.org/2000/svg"><g clip-path="url('#clip0_6852_62')"><path d="M9.634 2.257a2.925 2.925 0 0 0-4.131 0l-.265.264-.264-.264a2.925 2.925 0 0 0-4.132 0C-.274 3.373-.281 5.142.825 6.37c1.01 1.122 3.985 3.544 4.111 3.647a.46.46 0 0 0 .292.103h.01a.446.446 0 0 0 .301-.103c.127-.103 3.103-2.525 4.112-3.647 1.107-1.23 1.1-2.998-.017-4.114Zm-.67 3.496c-.787.874-2.95 2.676-3.726 3.316-.777-.64-2.939-2.442-3.725-3.316-.772-.858-.78-2.08-.017-2.842.39-.39.9-.584 1.412-.584a1.99 1.99 0 0 1 1.411.584l.582.581c.07.07.156.111.248.126.149.031.31-.01.426-.125l.581-.582a2 2 0 0 1 2.824 0c.762.762.755 1.984-.016 2.842Z" fill="#000"/></g><defs><clipPath id="clip0_6852_62"><path fill="#fff" transform="translate(0 .524)" d="M0 0h10.476v10.476H0z"/></clipPath></defs></svg>