<svg width="72" height="20" fill="none" xmlns="http://www.w3.org/2000/svg"><path fill-rule="evenodd" clip-rule="evenodd" d="M24.317 9.906c.13 1.433.835 2.278 2.104 2.537l3.099.036-.036-1.447h-1.447l-.821-2.242h4.574v5.96l-5.793-.036c-2.674-.908-3.956-2.552-3.855-4.935.094-2.414 1.34-3.977 3.718-4.675h5.959l-.036 2.242-5.333-.036c-1.298.276-2.011 1.142-2.133 2.596ZM34.813 14.71l-2.602-.064L36.658 5h1.714l4.308 9.682h-5.828l-.85-2.24 3.154.037-1.641-3.689-2.703 5.92ZM45.484 14.747l-2.303-.036-.036-9.675h2.368l4.347 5.266L49.896 5h2.268l-.03 9.71h-2.303l-4.347-5.33v5.367ZM52.756 7.34l-.029-2.203h8.957l.029 2.333-4.97 5.038h4.97v2.239h-9.022v-2.405l5.175-5.002h-5.11ZM67.02 7.362c1.419 0 2.566 1.138 2.566 2.537 0 1.4-1.152 2.537-2.565 2.537-1.419 0-2.566-1.138-2.566-2.537 0-1.397 1.145-2.537 2.566-2.537Zm0-2.376c2.753 0 4.978 2.199 4.978 4.913 0 2.717-2.227 4.913-4.977 4.913-2.753 0-4.978-2.198-4.978-4.913-.002-2.717 2.232-4.913 4.978-4.913ZM11.455 15.225l2.307 1.252-5.136 3.185L0 14.762V5.08L8.364.34l8.69 4.805-.064 5.858-2.436-1.18c.1-2.336-1.08-4.136-3.552-5.398-3.236-1.13-5.823-.252-7.767 2.637-1.332 2.58-.957 4.97 1.116 7.176 2.076 1.786 4.447 2.11 7.104.987Z" fill="#E20613"/><path fill-rule="evenodd" clip-rule="evenodd" d="m17.053 14.704-.1-1.613L9.74 8.912l1.81-3.292-.792-.425c-.677.857-1.716 1.382-3.098 1.577l-3.344 5.563 2.436 1.512 1.613-2.501 7.277 4.085 1.411-.727Z" fill="#E20613"/></svg>