<svg width="11" height="11" fill="none" xmlns="http://www.w3.org/2000/svg"><g clip-path="url('#clip0_6852_58')"><path d="M10.65 10.02 8.032 7.295a4.427 4.427 0 0 0 1.042-2.855A4.446 4.446 0 0 0 4.633 0 4.446 4.446 0 0 0 .19 4.441a4.446 4.446 0 0 0 4.442 4.441c.919 0 1.795-.277 2.544-.803l2.638 2.743a.576.576 0 0 0 .819.016.58.58 0 0 0 .016-.819ZM4.633 1.158A3.286 3.286 0 0 1 7.915 4.44a3.286 3.286 0 0 1-3.282 3.283A3.286 3.286 0 0 1 1.35 4.44 3.286 3.286 0 0 1 4.633 1.16Z" fill="#000"/></g><defs><clipPath id="clip0_6852_58"><path fill="#fff" d="M0 0h11v11H0z"/></clipPath></defs></svg>