<svg width="12" height="11" fill="none" xmlns="http://www.w3.org/2000/svg"><g clip-path="url('#clip0_6852_60')"><path d="M11.31 2.295h-8.6L2.58.87a.452.452 0 0 0-.45-.411h-.918a.452.452 0 1 0 0 .903h.505l.52 5.79c.037.416.262.869.65 1.177-.7.894-.06 2.212 1.079 2.212.945 0 1.612-.943 1.288-1.836h2.472a1.371 1.371 0 0 0 1.288 1.836c.755 0 1.37-.615 1.37-1.37 0-.755-.615-1.37-1.37-1.37H3.97a.839.839 0 0 1-.771-.508l7.22-.424a.452.452 0 0 0 .411-.342l.918-3.671a.452.452 0 0 0-.438-.561ZM3.967 9.637a.467.467 0 1 1 .001-.933.467.467 0 0 1-.001.933Zm5.048 0a.467.467 0 1 1 .001-.933.467.467 0 0 1 0 .933Zm1.019-3.65-6.957.408-.287-3.197h7.941l-.697 2.788Z" fill="#000"/></g><defs><clipPath id="clip0_6852_60"><path fill="#fff" transform="translate(.762)" d="M0 0h11v11H0z"/></clipPath></defs></svg>