<svg width="11" height="11" viewBox="0 0 11 11" fill="none" xmlns="http://www.w3.org/2000/svg">
<g clip-path="url(#clip0_6852_62)">
<path d="M9.63446 2.25675C8.4951 1.1177 6.64159 1.1177 5.50254 2.25675L5.23797 2.52116L4.97356 2.25675C3.8345 1.11754 1.98084 1.11754 0.841788 2.25675C-0.274139 3.37268 -0.281386 5.14154 0.824983 6.37141C1.83407 7.49273 4.81013 9.9153 4.9364 10.0178C5.02212 10.0875 5.12527 10.1214 5.22779 10.1214C5.23119 10.1214 5.23458 10.1214 5.23782 10.1213C5.34389 10.1262 5.45073 10.0898 5.53923 10.0178C5.6655 9.9153 8.64187 7.49273 9.65127 6.37125C10.7575 5.14154 10.7502 3.37268 9.63446 2.25675ZM8.96364 5.75254C8.17688 6.62657 6.01425 8.4292 5.23782 9.06887C4.46138 8.42935 2.29922 6.62688 1.51261 5.7527C0.740803 4.89486 0.733556 3.67317 1.4958 2.91092C1.8851 2.52178 2.39635 2.32705 2.9076 2.32705C3.41884 2.32705 3.93009 2.52162 4.31939 2.91092L4.90094 3.49247C4.97017 3.5617 5.05743 3.60302 5.14901 3.61751C5.29764 3.64942 5.4589 3.60795 5.57454 3.49263L6.1564 2.91092C6.93514 2.13248 8.20185 2.13264 8.98014 2.91092C9.74238 3.67317 9.73514 4.89486 8.96364 5.75254Z" fill="black"/>
</g>
<defs>
<clipPath id="clip0_6852_62">
<rect width="10.4761" height="10.4761" fill="white" transform="translate(0 0.523926)"/>
</clipPath>
</defs>
</svg>
