<svg width="72" height="20" viewBox="0 0 72 20" fill="none" xmlns="http://www.w3.org/2000/svg">
<path fill-rule="evenodd" clip-rule="evenodd" d="M24.3166 9.9064C24.4462 11.3392 25.1518 12.184 26.4214 12.4432L29.5198 12.4792L29.4838 11.032H28.0366L27.2158 8.7904H31.7902V14.7496L25.9966 14.7136C23.323 13.8064 22.0414 12.1624 22.1422 9.7792C22.2358 7.3648 23.4814 5.8024 25.8598 5.104H31.819L31.783 7.3456L26.4502 7.3096C25.1518 7.5856 24.439 8.452 24.3166 9.9064Z" fill="#E20613"/>
<path fill-rule="evenodd" clip-rule="evenodd" d="M34.8125 14.7109L32.2109 14.6461L36.6581 5.00049H38.3717L42.6797 14.6821H36.8525L36.0029 12.4429L39.1565 12.4789L37.5149 8.79009L34.8125 14.7109Z" fill="#E20613"/>
<path fill-rule="evenodd" clip-rule="evenodd" d="M45.4845 14.7469L43.1805 14.7109L43.1445 5.03649H45.5133L49.8597 10.3021L49.8957 5.00049H52.1637L52.1349 14.7109H49.8309L45.4845 9.38049V14.7469Z" fill="#E20613"/>
<path fill-rule="evenodd" clip-rule="evenodd" d="M52.7562 7.34041L52.7274 5.13721H61.6842L61.713 7.47001L56.7426 12.5076H61.713V14.7468H52.6914V12.342L57.8658 7.34041H52.7562Z" fill="#E20613"/>
<path fill-rule="evenodd" clip-rule="evenodd" d="M67.0206 7.36233C68.439 7.36233 69.5862 8.49993 69.5862 9.89913C69.5862 11.2983 68.4342 12.4359 67.0206 12.4359C65.6022 12.4359 64.455 11.2983 64.455 9.89913C64.455 8.50233 65.5998 7.36233 67.0206 7.36233ZM67.0206 4.98633C69.7734 4.98633 71.9982 7.18473 71.9982 9.89913C71.9982 12.6159 69.771 14.8119 67.0206 14.8119C64.2678 14.8119 62.043 12.6135 62.043 9.89913C62.0406 7.18233 64.275 4.98633 67.0206 4.98633Z" fill="#E20613"/>
<path fill-rule="evenodd" clip-rule="evenodd" d="M11.4552 15.2246L13.7616 16.4774L8.6256 19.6622L0 14.7614V5.07984L8.364 0.339844L17.0544 5.14464L16.9896 11.003L14.5536 9.82224C14.6544 7.48704 13.4736 5.68704 11.0016 4.42464C7.7664 3.29424 5.1792 4.17264 3.2352 7.06224C1.9032 9.64224 2.2776 12.0326 4.3512 14.2382C6.4272 16.0238 8.7984 16.3478 11.4552 15.2246Z" fill="#E20613"/>
<path fill-rule="evenodd" clip-rule="evenodd" d="M17.0532 14.7036L16.9524 13.0908L9.74041 8.91243L11.55 5.61963L10.758 5.19482C10.0812 6.05162 9.04201 6.57723 7.65961 6.77163L4.31641 12.3348L6.75241 13.8468L8.36521 11.346L15.642 15.4308L17.0532 14.7036Z" fill="#E20613"/>
</svg>
