<svg width="11" height="11" viewBox="0 0 11 11" fill="none" xmlns="http://www.w3.org/2000/svg">
<g clip-path="url(#clip0_6852_58)">
<path d="M10.65 10.0193L8.03194 7.29639C8.70508 6.49619 9.0739 5.48938 9.0739 4.44125C9.0739 1.99238 7.08152 0 4.63265 0C2.18379 0 0.191406 1.99238 0.191406 4.44125C0.191406 6.89011 2.18379 8.88249 4.63265 8.88249C5.55199 8.88249 6.42807 8.6052 7.1771 8.07882L9.81501 10.8224C9.92527 10.9369 10.0736 11 10.2325 11C10.3829 11 10.5256 10.9426 10.6339 10.8384C10.8641 10.6169 10.8714 10.2496 10.65 10.0193ZM4.63265 1.15859C6.44275 1.15859 7.91531 2.63115 7.91531 4.44125C7.91531 6.25134 6.44275 7.72391 4.63265 7.72391C2.82255 7.72391 1.34999 6.25134 1.34999 4.44125C1.34999 2.63115 2.82255 1.15859 4.63265 1.15859Z" fill="black"/>
</g>
<defs>
<clipPath id="clip0_6852_58">
<rect width="11" height="11" fill="white"/>
</clipPath>
</defs>
</svg>
