<svg width="12" height="11" viewBox="0 0 12 11" fill="none" xmlns="http://www.w3.org/2000/svg">
<g clip-path="url(#clip0_6852_60)">
<path d="M11.3097 2.29459H2.7091L2.58125 0.870355C2.56035 0.637447 2.36515 0.458984 2.13131 0.458984H1.21347C0.963973 0.458984 0.761719 0.661239 0.761719 0.910733C0.761719 1.16023 0.963973 1.36248 1.21347 1.36248H1.71831C1.9942 4.43614 1.28117 -3.50812 2.23788 7.15108C2.27475 7.56828 2.50018 8.021 2.88851 8.32862C2.18836 9.22273 2.82808 10.5409 3.96698 10.5409C4.91226 10.5409 5.57897 9.59809 5.25481 8.70518H7.72729C7.40354 9.59695 8.06882 10.5409 9.01512 10.5409C9.77032 10.5409 10.3847 9.92647 10.3847 9.17128C10.3847 8.41608 9.77032 7.80168 9.01512 7.80168H3.97004C3.62688 7.80168 3.32784 7.59465 3.19877 7.29302L10.4183 6.86872C10.6154 6.85714 10.7822 6.71886 10.8301 6.52732L11.748 2.8559C11.8191 2.57121 11.6036 2.29459 11.3097 2.29459ZM3.96698 9.63738C3.71 9.63738 3.50091 9.42828 3.50091 9.17128C3.50091 8.91428 3.71 8.70518 3.96698 8.70518C4.22398 8.70518 4.43308 8.91428 4.43308 9.17128C4.43308 9.42828 4.22398 9.63738 3.96698 9.63738ZM9.0151 9.63738C8.7581 9.63738 8.549 9.42828 8.549 9.17128C8.549 8.91428 8.7581 8.70518 9.0151 8.70518C9.2721 8.70518 9.4812 8.91428 9.4812 9.17128C9.4812 9.42828 9.2721 9.63738 9.0151 9.63738ZM10.034 5.98626L3.07717 6.39509L2.7902 3.19807H10.7311L10.034 5.98626Z" fill="black"/>
</g>
<defs>
<clipPath id="clip0_6852_60">
<rect width="10.9999" height="10.9999" fill="white" transform="translate(0.761719)"/>
</clipPath>
</defs>
</svg>
