<svg width="20" height="21" viewBox="0 0 20 21" fill="none" xmlns="http://www.w3.org/2000/svg">
<path fill-rule="evenodd" clip-rule="evenodd" d="M4.15965 0.0569C3.43094 0.279749 2.92774 0.930568 2.85173 1.74864L2.8112 2.18464L2.23638 2.21755C1.79728 2.24271 1.57163 2.29322 1.28083 2.4315C0.821294 2.65007 0.374338 3.08346 0.158947 3.51952L0 3.84125V11.5684V19.2955L0.173591 19.6635C0.475444 20.3033 1.06011 20.7656 1.77777 20.932C1.95742 20.9737 4.98993 20.9988 9.9535 20.9999C16.8547 21.0013 17.8933 20.9885 18.2403 20.8982C19.1087 20.6721 19.7176 20.0286 19.9053 19.1387C19.9827 18.7716 19.9993 17.4534 20 11.6353C20.0005 7.43675 19.9748 4.41821 19.9368 4.18486C19.8075 3.39087 19.3458 2.77625 18.6194 2.43084C18.3285 2.29255 18.1041 2.24271 17.6565 2.21708L17.0729 2.18363V1.90399C17.0729 1.44725 16.8971 0.977198 16.5991 0.636937C16.2368 0.223284 15.8836 0.0491394 15.3254 0.00886462C14.7641 -0.0316777 14.3704 0.106073 13.9594 0.486876C13.565 0.85236 13.399 1.20212 13.3598 1.75058L13.3275 2.20217H9.94192H6.55624L6.55118 1.81748C6.54839 1.60587 6.51098 1.33693 6.46798 1.21978C6.20134 0.492897 5.48474 -0.0105368 4.73181 0.000167474C4.5089 0.00331185 4.25137 0.0288682 4.15965 0.0569ZM5.15846 1.18747C5.45765 1.4051 5.55763 1.70576 5.5577 2.38829C5.55783 3.08567 5.46984 3.37528 5.19081 3.59586C4.96617 3.77348 4.49751 3.79088 4.25417 3.63065C3.95724 3.43503 3.89381 3.21265 3.89381 2.36634C3.89381 1.67679 3.91025 1.56406 4.03665 1.38563C4.30855 1.00188 4.78719 0.917321 5.15846 1.18747ZM15.4996 1.09019C15.6204 1.14091 15.7864 1.26822 15.8684 1.37305C16.0089 1.55255 16.0164 1.61564 15.9961 2.45907L15.9746 3.35448L15.7442 3.54769C15.5592 3.70277 15.4495 3.7409 15.1884 3.7409C14.9071 3.7409 14.8323 3.71006 14.6367 3.51344L14.4104 3.28597V2.41859C14.4104 1.63043 14.4236 1.53435 14.5545 1.36703C14.6927 1.19055 15.0149 1.0061 15.1946 1.00055C15.2416 0.999142 15.3788 1.03942 15.4996 1.09019ZM2.8954 3.38231C2.8954 3.79904 3.5407 4.52271 4.07579 4.70596C5.13597 5.06903 6.16054 4.51602 6.51544 3.38907C6.55032 3.27848 6.75759 3.27239 9.9557 3.28871L13.3588 3.30604L13.4835 3.6362C13.6421 4.05621 14.069 4.49468 14.501 4.68154C14.9677 4.88338 15.6631 4.84264 16.0951 4.58814C16.4745 4.36469 16.841 3.93806 16.9599 3.58134L17.0517 3.30604H17.5832C18.0403 3.30604 18.1491 3.32946 18.3604 3.4733C18.5028 3.57024 18.6755 3.77964 18.7713 3.97144C18.9331 4.29552 18.9366 4.33479 18.9366 5.86141V7.42049H9.95084H0.965132L0.965531 5.93193C0.965731 5.09974 0.996682 4.33191 1.03569 4.19068C1.12035 3.88434 1.45555 3.48574 1.72932 3.36585C1.83987 3.31742 2.14745 3.27667 2.41283 3.2752C2.81685 3.27299 2.8954 3.29045 2.8954 3.38231ZM18.9228 13.6089C18.9363 17.1783 18.92 18.8377 18.8699 19.0123C18.7791 19.3278 18.4402 19.722 18.1577 19.8407C17.9809 19.915 16.5178 19.9308 9.96961 19.9296C2.37842 19.9282 1.98398 19.9223 1.72785 19.8053C1.39957 19.6554 1.12661 19.3419 1.03462 19.0091C0.990092 18.8479 0.965731 16.9407 0.965531 13.5919L0.965132 8.42354L9.9342 8.44047L18.9033 8.45746L18.9228 13.6089ZM12.4307 11.9196C12.2586 12.076 11.4634 12.8512 10.6634 13.6423C9.86338 14.4334 9.18719 15.0887 9.16083 15.0984C9.10213 15.1201 8.9929 15.0217 8.01199 14.0637C7.32069 13.3886 7.21273 13.3078 7.0018 13.3078C6.82588 13.3078 6.73036 13.3529 6.62766 13.4841C6.3483 13.841 6.39563 13.9179 7.68365 15.1978C8.79528 16.3023 8.89579 16.3853 9.12289 16.3853C9.34973 16.3853 9.45463 16.2991 10.6074 15.1649C13.6243 12.1965 13.412 12.4243 13.412 12.1563C13.412 11.9727 13.3687 11.8784 13.2366 11.774C12.9734 11.5658 12.7818 11.6004 12.4307 11.9196Z" fill="#161C2D"/>
</svg>
