<svg width="14" height="17" viewBox="0 0 14 17" fill="none" xmlns="http://www.w3.org/2000/svg">
<mask id="path-1-inside-1_56_176" fill="white">
<path d="M13.0918 10.2632C13.3027 10.2632 13.4748 10.4343 13.4629 10.6449C13.3984 11.7806 13.0473 12.8837 12.4394 13.8501C11.7637 14.9244 10.7982 15.786 9.65421 16.3356C8.51021 16.8852 7.23423 17.1005 5.97323 16.9566C4.71223 16.8128 3.51752 16.3156 2.52671 15.5225C1.5359 14.7293 0.789301 13.6724 0.372901 12.4735C-0.0434991 11.2746 -0.112756 9.98239 0.173108 8.74583C0.458973 7.50927 1.08833 6.37861 1.98868 5.48409C2.79856 4.67946 3.79807 4.09533 4.89209 3.78386C5.09494 3.72611 5.29959 3.85658 5.34576 4.06238C5.39192 4.26817 5.26206 4.47123 5.05963 4.53045C4.10591 4.80947 3.23478 5.32271 2.527 6.02591C1.72872 6.81901 1.17071 7.82149 0.917258 8.91786C0.663803 10.0142 0.725208 11.1599 1.0944 12.2229C1.46359 13.2859 2.12555 14.223 3.00403 14.9262C3.88251 15.6295 4.94177 16.0702 6.0598 16.1978C7.17784 16.3253 8.30916 16.1345 9.32346 15.6472C10.3378 15.1599 11.1938 14.3959 11.7929 13.4434C12.3241 12.5989 12.6342 11.6365 12.6977 10.6449C12.7112 10.4344 12.8809 10.2632 13.0918 10.2632Z"/>
</mask>
<path d="M13.0918 10.2632C13.3027 10.2632 13.4748 10.4343 13.4629 10.6449C13.3984 11.7806 13.0473 12.8837 12.4394 13.8501C11.7637 14.9244 10.7982 15.786 9.65421 16.3356C8.51021 16.8852 7.23423 17.1005 5.97323 16.9566C4.71223 16.8128 3.51752 16.3156 2.52671 15.5225C1.5359 14.7293 0.789301 13.6724 0.372901 12.4735C-0.0434991 11.2746 -0.112756 9.98239 0.173108 8.74583C0.458973 7.50927 1.08833 6.37861 1.98868 5.48409C2.79856 4.67946 3.79807 4.09533 4.89209 3.78386C5.09494 3.72611 5.29959 3.85658 5.34576 4.06238C5.39192 4.26817 5.26206 4.47123 5.05963 4.53045C4.10591 4.80947 3.23478 5.32271 2.527 6.02591C1.72872 6.81901 1.17071 7.82149 0.917258 8.91786C0.663803 10.0142 0.725208 11.1599 1.0944 12.2229C1.46359 13.2859 2.12555 14.223 3.00403 14.9262C3.88251 15.6295 4.94177 16.0702 6.0598 16.1978C7.17784 16.3253 8.30916 16.1345 9.32346 15.6472C10.3378 15.1599 11.1938 14.3959 11.7929 13.4434C12.3241 12.5989 12.6342 11.6365 12.6977 10.6449C12.7112 10.4344 12.8809 10.2632 13.0918 10.2632Z" stroke="#939393" stroke-width="2" mask="url(#path-1-inside-1_56_176)"/>
<path d="M3.36841 8.12253L6.73683 12.3331M12.6769 1L6.78214 12.4065" stroke="#AAC004" stroke-linecap="round"/>
</svg>
