<svg width="16" height="14" viewBox="0 0 16 14" fill="none" xmlns="http://www.w3.org/2000/svg">
<path d="M5.81466 2.07433C5.54031 1.59047 5.71107 0.971961 6.23169 0.780725C7.24155 0.409775 8.33264 0.282236 9.41215 0.4158C10.827 0.590857 12.148 1.20529 13.1828 2.1696C14.2175 3.13391 14.912 4.39772 15.1649 5.77693C15.4179 7.15613 15.2161 8.57869 14.5891 9.83737C13.9621 11.096 12.9425 12.1251 11.6789 12.7746C10.4152 13.4241 8.97361 13.6602 7.56398 13.4484C6.15434 13.2366 4.85033 12.588 3.84191 11.5971C3.0735 10.8421 2.5073 9.91832 2.18587 8.90847C2.01868 8.38322 2.39878 7.87315 2.94417 7.79112L7.14798 7.15886C7.83894 7.05494 8.20786 6.29514 7.86282 5.68661L5.81466 2.07433Z" fill="#939393"/>
<path d="M4.429 1.17349C4.15741 0.694495 3.54433 0.514936 3.10779 0.845887C2.2976 1.46011 1.63777 2.25153 1.18396 3.16248C0.733632 4.06643 0.502317 5.05566 0.501953 6.05341C0.501752 6.60575 1.02414 6.98418 1.57205 6.90177L5.76939 6.27049C6.46035 6.16657 6.82927 5.40677 6.48423 4.79824L4.429 1.17349Z" fill="#AAC004"/>
</svg>
