<svg width="38" height="29" viewBox="0 0 38 29" fill="none" xmlns="http://www.w3.org/2000/svg">
<rect x="0.5" y="5.07886" width="32.5294" height="23.4211" rx="0.5" stroke="#939393"/>
<rect y="9.15771" width="32.9198" height="3.81579" fill="#939393"/>
<line x1="4.15771" y1="20.1052" x2="13.5214" y2="20.1052" stroke="#939393" stroke-linecap="round"/>
<line x1="4.15771" y1="23.9209" x2="20.8369" y2="23.9209" stroke="#939393" stroke-linecap="round"/>
<ellipse cx="30.1766" cy="8.01316" rx="7.82353" ry="8.01316" fill="#AAC004"/>
<path d="M36.0099 8.01321C36.0099 11.331 33.387 14.0001 30.1766 14.0001C26.9662 14.0001 24.3433 11.331 24.3433 8.01321C24.3433 4.69541 26.9662 2.02637 30.1766 2.02637C33.387 2.02637 36.0099 4.69541 36.0099 8.01321Z" stroke="white"/>
<path d="M30.1595 12.2799V3.95459H30.6803V12.2799H30.1595ZM31.9122 6.4522C31.8741 6.12265 31.7196 5.86682 31.4487 5.6847C31.1777 5.50259 30.8454 5.41153 30.4517 5.41153C30.1638 5.41153 29.9119 5.45923 29.696 5.55462C29.4822 5.65001 29.315 5.78118 29.1943 5.94812C29.0758 6.11506 29.0165 6.30477 29.0165 6.51724C29.0165 6.69502 29.0578 6.84787 29.1403 6.97578C29.225 7.10153 29.333 7.20668 29.4642 7.29124C29.5954 7.37362 29.733 7.44192 29.877 7.49612C30.0209 7.54815 30.1532 7.59043 30.2739 7.62295L30.9343 7.80507C31.1036 7.8506 31.292 7.91347 31.4995 7.99369C31.709 8.07391 31.909 8.1834 32.0996 8.32215C32.2922 8.45874 32.4509 8.63435 32.5758 8.84899C32.7007 9.06363 32.7632 9.32705 32.7632 9.63925C32.7632 9.99915 32.6711 10.3244 32.4869 10.6149C32.3049 10.9054 32.0382 11.1363 31.6868 11.3076C31.3375 11.4788 30.9131 11.5645 30.4136 11.5645C29.9479 11.5645 29.5446 11.4875 29.2038 11.3336C28.8652 11.1797 28.5984 10.965 28.4037 10.6897C28.2111 10.4143 28.1021 10.0945 28.0767 9.73031H28.8895C28.9107 9.9818 28.9932 10.1899 29.1372 10.3547C29.2832 10.5173 29.4674 10.6387 29.6896 10.7189C29.914 10.797 30.1553 10.836 30.4136 10.836C30.7141 10.836 30.984 10.7862 31.2232 10.6864C31.4624 10.5845 31.6519 10.4436 31.7916 10.2637C31.9313 10.0815 32.0011 9.86906 32.0011 9.62624C32.0011 9.4051 31.9408 9.22515 31.8201 9.08639C31.6995 8.94764 31.5407 8.8349 31.3439 8.74818C31.147 8.66145 30.9343 8.58557 30.7057 8.52053L29.9055 8.28638C29.3975 8.13678 28.9953 7.92323 28.699 7.64572C28.4026 7.3682 28.2545 7.00505 28.2545 6.55626C28.2545 6.18336 28.3529 5.85815 28.5498 5.58064C28.7487 5.30096 29.0154 5.08415 29.3499 4.93022C29.6865 4.77412 30.0622 4.69607 30.4771 4.69607C30.8962 4.69607 31.2687 4.77303 31.5947 4.92697C31.9207 5.07873 32.1789 5.28686 32.3694 5.55137C32.5621 5.81587 32.6637 6.11615 32.6743 6.4522H31.9122Z" fill="white"/>
</svg>
