<svg width="43" height="36" viewBox="0 0 43 36" fill="none" xmlns="http://www.w3.org/2000/svg">
<path d="M36.3572 14.1603V31.3811C36.3572 31.609 36.203 31.8081 35.9823 31.8652L22.1001 35.4539C22.0212 35.4743 21.9385 35.4751 21.8593 35.4563L6.70389 31.8518L6.5882 32.3382L6.70389 31.8518C6.4786 31.7982 6.31958 31.597 6.31958 31.3654V14.1505C6.31958 13.9014 6.50304 13.6902 6.74977 13.6554L20.6275 11.6986C20.672 11.6923 20.7171 11.6921 20.7617 11.6978L35.9215 13.6645C36.1707 13.6968 36.3572 13.909 36.3572 14.1603Z" fill="white" stroke="#939393"/>
<path d="M6.19701 14.0541C6.30472 13.907 6.48395 13.8302 6.66473 13.8536L20.7219 15.6772C21.0802 15.7237 21.2725 16.1232 21.0852 16.4322L16.1155 24.6324C16.0029 24.8181 15.7834 24.91 15.5722 24.8597L1.581 21.5322C1.2331 21.4494 1.08201 21.0388 1.29329 20.7503L6.19701 14.0541Z" fill="white" stroke="#939393"/>
<path d="M36.803 14.0541C36.6953 13.907 36.5161 13.8302 36.3353 13.8536L22.2781 15.6772C21.9198 15.7237 21.7275 16.1232 21.9148 16.4322L26.8845 24.6324C26.9971 24.8181 27.2166 24.91 27.4278 24.8597L41.419 21.5322C41.7669 21.4494 41.918 21.0388 41.7067 20.7503L36.803 14.0541Z" fill="white" stroke="#939393"/>
<path d="M21.6616 15.3787L21.6616 35.6505" stroke="#939393"/>
<line x1="0.5" y1="-0.5" x2="4.73502" y2="-0.5" transform="matrix(0.970741 0.240129 -0.207075 0.978325 7.80493 29.7793)" stroke="#939393" stroke-linecap="round"/>
<ellipse cx="21.1417" cy="7.33981" rx="7.525" ry="7.33981" fill="#AAC004"/>
<path d="M26.7334 7.3397C26.7334 10.3334 24.2417 12.7814 21.1417 12.7814C18.0417 12.7814 15.55 10.3334 15.55 7.3397C15.55 4.34597 18.0417 1.89795 21.1417 1.89795C24.2417 1.89795 26.7334 4.34597 26.7334 7.3397Z" stroke="white"/>
<path d="M21.1255 11.2481V3.62231H21.6263V11.2481H21.1255ZM22.8113 5.91005C22.7746 5.60819 22.626 5.37386 22.3654 5.20705C22.1048 5.04023 21.7851 4.95682 21.4064 4.95682C21.1296 4.95682 20.8873 5.00051 20.6796 5.08789C20.474 5.17527 20.3131 5.29542 20.1971 5.44833C20.0831 5.60124 20.026 5.77501 20.026 5.96962C20.026 6.13246 20.0657 6.27247 20.1452 6.38964C20.2266 6.50482 20.3304 6.60113 20.4567 6.67858C20.5829 6.75404 20.7152 6.8166 20.8537 6.86625C20.9921 6.91391 21.1194 6.95263 21.2354 6.98242L21.8707 7.14923C22.0335 7.19094 22.2147 7.24853 22.4143 7.32201C22.6158 7.39548 22.8082 7.49577 22.9915 7.62287C23.1767 7.74798 23.3294 7.90883 23.4496 8.10543C23.5697 8.30204 23.6297 8.54332 23.6297 8.82929C23.6297 9.15894 23.5412 9.45682 23.364 9.72293C23.189 9.98904 22.9324 10.2005 22.5944 10.3574C22.2585 10.5143 21.8503 10.5927 21.3698 10.5927C20.9219 10.5927 20.534 10.5222 20.2062 10.3813C19.8805 10.2403 19.6239 10.0437 19.4366 9.79145C19.2514 9.53924 19.1465 9.24632 19.1221 8.91269H19.9039C19.9242 9.14306 20.0037 9.3337 20.1421 9.48463C20.2826 9.63357 20.4597 9.74478 20.6735 9.81825C20.8893 9.88975 21.1214 9.92549 21.3698 9.92549C21.6589 9.92549 21.9185 9.87982 22.1486 9.78847C22.3786 9.69513 22.5608 9.56605 22.6952 9.40122C22.8296 9.23441 22.8968 9.03979 22.8968 8.81737C22.8968 8.61481 22.8388 8.44999 22.7227 8.32289C22.6067 8.19579 22.454 8.09253 22.2646 8.01309C22.0753 7.93366 21.8707 7.86415 21.6508 7.80457L20.8812 7.5901C20.3925 7.45307 20.0057 7.25747 19.7206 7.00327C19.4356 6.74908 19.2931 6.41645 19.2931 6.00537C19.2931 5.6638 19.3878 5.36592 19.5771 5.11172C19.7685 4.85555 20.025 4.65696 20.3467 4.51596C20.6704 4.37298 21.0318 4.30149 21.4309 4.30149C21.834 4.30149 22.1923 4.37198 22.5059 4.51298C22.8194 4.65199 23.0678 4.84264 23.251 5.08491C23.4363 5.32719 23.5341 5.60224 23.5442 5.91005H22.8113Z" fill="white"/>
</svg>
