<svg width="36" height="35" viewBox="0 0 36 35" fill="none" xmlns="http://www.w3.org/2000/svg">
<mask id="path-1-inside-1_62_84" fill="white">
<path d="M13.2824 7.45483C13.0132 6.9723 13.185 6.3595 13.6862 6.12712C15.9906 5.05856 18.5562 4.65528 21.0902 4.97396C23.9561 5.33437 26.632 6.59938 28.7279 8.58472C30.8239 10.5701 32.2305 13.172 32.7429 16.0116C33.2553 18.8511 32.8467 21.7799 31.5766 24.3713C30.3064 26.9627 28.2412 29.0813 25.6816 30.4185C23.1221 31.7558 20.202 32.2418 17.3466 31.8057C14.4913 31.3697 11.8499 30.0344 9.80731 27.9943C8.00125 26.1905 6.74668 23.9191 6.17826 21.4457C6.05458 20.9075 6.43298 20.3963 6.97887 20.3128L17.9729 18.6322C18.6623 18.5268 19.0345 17.7661 18.6947 17.1571L13.2824 7.45483Z"/>
</mask>
<path d="M13.2824 7.45483C13.0132 6.9723 13.185 6.3595 13.6862 6.12712C15.9906 5.05856 18.5562 4.65528 21.0902 4.97396C23.9561 5.33437 26.632 6.59938 28.7279 8.58472C30.8239 10.5701 32.2305 13.172 32.7429 16.0116C33.2553 18.8511 32.8467 21.7799 31.5766 24.3713C30.3064 26.9627 28.2412 29.0813 25.6816 30.4185C23.1221 31.7558 20.202 32.2418 17.3466 31.8057C14.4913 31.3697 11.8499 30.0344 9.80731 27.9943C8.00125 26.1905 6.74668 23.9191 6.17826 21.4457C6.05458 20.9075 6.43298 20.3963 6.97887 20.3128L17.9729 18.6322C18.6623 18.5268 19.0345 17.7661 18.6947 17.1571L13.2824 7.45483Z" stroke="#939393" stroke-width="2" mask="url(#path-1-inside-1_62_84)"/>
<path d="M10.4895 5.62493C10.2204 5.14271 9.60912 4.96644 9.14786 5.26968C7.12665 6.59846 5.49268 8.44713 4.42338 10.6288C3.35431 12.81 2.8946 15.2324 3.0832 17.6415C3.12631 18.1921 3.64075 18.5671 4.18681 18.4837L15.1805 16.8031C15.8698 16.6977 16.242 15.937 15.9023 15.328L10.4895 5.62493Z" fill="#AAC004"/>
</svg>
