<svg width="16" height="15" viewBox="0 0 16 15" fill="none" xmlns="http://www.w3.org/2000/svg">
<path d="M15.5 7.21154C15.5 11.1944 12.1421 14.4231 8 14.4231C3.85786 14.4231 0.5 11.1944 0.5 7.21154C0.5 3.22872 3.85786 0 8 0C12.1421 0 15.5 3.22872 15.5 7.21154Z" fill="#AAC004"/>
<path d="M5.46289 5.177C5.49805 4.50903 5.72656 3.97192 6.14844 3.56567C6.60547 3.12427 7.22852 2.90356 8.01758 2.90356C8.74805 2.90356 9.34766 3.10669 9.81641 3.51294C10.2734 3.91138 10.502 4.41528 10.502 5.02466C10.502 5.88013 10.0938 6.55396 9.27734 7.04614C8.91016 7.26489 8.6582 7.47388 8.52148 7.6731C8.38867 7.8645 8.32227 8.11646 8.32227 8.42896V8.80981H7.29688V8.27075C7.29297 7.55591 7.68359 6.96216 8.46875 6.4895C8.8125 6.27856 9.05469 6.06958 9.19531 5.86255C9.33984 5.64771 9.41211 5.38599 9.41211 5.07739C9.41211 4.71021 9.28125 4.40942 9.01953 4.17505C8.75391 3.93677 8.40625 3.81763 7.97656 3.81763C7.53516 3.81763 7.18164 3.93872 6.91602 4.18091C6.64648 4.4231 6.49609 4.75513 6.46484 5.177H5.46289ZM7.88867 11.5286C7.65039 11.5286 7.45508 11.4524 7.30273 11.3C7.15039 11.1477 7.07422 10.9524 7.07422 10.7141C7.07422 10.4758 7.15039 10.2786 7.30273 10.1223C7.45508 9.96997 7.65039 9.8938 7.88867 9.8938C8.12695 9.8938 8.32031 9.96997 8.46875 10.1223C8.62109 10.2747 8.69727 10.4719 8.69727 10.7141C8.69727 10.9524 8.62109 11.1477 8.46875 11.3C8.32031 11.4524 8.12695 11.5286 7.88867 11.5286Z" fill="white"/>
</svg>
